<svg height='100px' width='100px'  fill="#000000" xmlns="http://www.w3.org/2000/svg" xmlns:xlink="http://www.w3.org/1999/xlink" version="1.1" x="0px" y="0px" viewBox="0 0 100 100" enable-background="new 0 0 100 100" xml:space="preserve"><g><path fill="none" d="M45.939,8.364h6.934c0.578,0,1.047-0.471,1.047-1.049c0-0.577-0.469-1.048-1.047-1.048h-6.934   c-0.578,0-1.048,0.471-1.048,1.048C44.892,7.894,45.361,8.364,45.939,8.364z"></path><path fill="none" d="M36.847,17.227c-2.88,0-5.216,2.336-5.216,5.216h5.216V17.227z"></path><circle fill="none" cx="49.405" cy="91.678" r="2.998"></circle><path fill="none" d="M27.567,85.607h43.675V11.886H27.567V85.607z M31.675,63.197c-0.241,0-0.437-0.196-0.437-0.438v-4.912   c0-0.241,0.196-0.438,0.437-0.438h1.75c0.241,0,0.436,0.196,0.436,0.438v4.912c0,0.241-0.195,0.438-0.436,0.438H31.675z    M37.23,78.926v1.432h-1.375v-1.32c-0.931-0.041-1.833-0.307-2.362-0.598l0.417-1.625c0.583,0.318,1.403,0.611,2.305,0.611   c0.808,0,1.35-0.32,1.35-0.861c0-0.529-0.444-0.863-1.486-1.209c-1.488-0.5-2.502-1.196-2.502-2.544   c0-1.235,0.863-2.196,2.349-2.473v-1.32h1.362v1.223c0.916,0.026,1.542,0.236,2.028,0.459l-0.416,1.569   c-0.348-0.166-1-0.486-2.002-0.486c-0.903,0-1.195,0.402-1.195,0.793c0,0.443,0.487,0.75,1.683,1.18   c1.652,0.585,2.306,1.35,2.306,2.612C39.69,77.605,38.829,78.661,37.23,78.926z M35.712,62.76v-7.688   c0-0.242,0.196-0.438,0.438-0.438h1.749c0.241,0,0.437,0.195,0.437,0.438v7.688c0,0.241-0.196,0.438-0.437,0.438H36.15   C35.908,63.197,35.712,63.001,35.712,62.76z M42.81,62.76c0,0.241-0.196,0.438-0.437,0.438h-1.75c-0.242,0-0.438-0.196-0.438-0.438   V52.295c0-0.241,0.196-0.438,0.438-0.438h1.75c0.24,0,0.437,0.196,0.437,0.438V62.76z M47.668,16.518h19.363   c0.539,0,0.975,0.436,0.975,0.975c0,0.538-0.436,0.975-0.975,0.975H47.668c-0.538,0-0.975-0.437-0.975-0.975   C46.694,16.953,47.13,16.518,47.668,16.518z M47.668,21.467h19.363c0.539,0,0.975,0.437,0.975,0.975   c0,0.539-0.436,0.975-0.975,0.975H47.668c-0.538,0-0.975-0.436-0.975-0.975C46.694,21.903,47.13,21.467,47.668,21.467z    M47.668,26.416h19.363c0.539,0,0.975,0.438,0.975,0.975c0,0.539-0.436,0.976-0.975,0.976H47.668c-0.538,0-0.975-0.437-0.975-0.976   C46.694,26.854,47.13,26.416,47.668,26.416z M47.668,34.111h19.363c0.539,0,0.975,0.437,0.975,0.975   c0,0.539-0.436,0.975-0.975,0.975H47.668c-0.538,0-0.975-0.436-0.975-0.975C46.694,34.548,47.13,34.111,47.668,34.111z    M47.668,39.061h19.363c0.539,0,0.975,0.438,0.975,0.975c0,0.539-0.436,0.976-0.975,0.976H47.668c-0.538,0-0.975-0.437-0.975-0.976   C46.694,39.498,47.13,39.061,47.668,39.061z M47.668,44.011h19.363c0.539,0,0.975,0.437,0.975,0.975s-0.436,0.976-0.975,0.976   H47.668c-0.538,0-0.975-0.438-0.975-0.976S47.13,44.011,47.668,44.011z M47.668,51.43h19.363c0.539,0,0.975,0.436,0.975,0.975   c0,0.538-0.436,0.975-0.975,0.975H47.668c-0.538,0-0.975-0.437-0.975-0.975C46.694,51.865,47.13,51.43,47.668,51.43z    M47.668,56.379h19.363c0.539,0,0.975,0.437,0.975,0.975c0,0.539-0.436,0.975-0.975,0.975H47.668c-0.538,0-0.975-0.436-0.975-0.975   C46.694,56.815,47.13,56.379,47.668,56.379z M47.668,61.328h19.363c0.539,0,0.975,0.438,0.975,0.975   c0,0.539-0.436,0.976-0.975,0.976H47.668c-0.538,0-0.975-0.437-0.975-0.976C46.694,61.766,47.13,61.328,47.668,61.328z    M47.668,69.23h19.363c0.539,0,0.975,0.438,0.975,0.975c0,0.539-0.436,0.976-0.975,0.976H47.668c-0.538,0-0.975-0.437-0.975-0.976   C46.694,69.668,47.13,69.23,47.668,69.23z M47.668,74.181h19.363c0.539,0,0.975,0.437,0.975,0.975s-0.436,0.976-0.975,0.976H47.668   c-0.538,0-0.975-0.438-0.975-0.976S47.13,74.181,47.668,74.181z M47.668,79.131h19.363c0.539,0,0.975,0.436,0.975,0.975   c0,0.538-0.436,0.975-0.975,0.975H47.668c-0.538,0-0.975-0.437-0.975-0.975C46.694,79.566,47.13,79.131,47.668,79.131z    M36.847,16.772c3.131,0,5.67,2.539,5.67,5.67c0,3.132-2.539,5.671-5.67,5.671c-3.131,0-5.67-2.539-5.67-5.671   C31.177,19.312,33.716,16.772,36.847,16.772z M31.939,41.819c0.126,0,0.242,0.034,0.355,0.071l1.601-1.6   c-0.038-0.113-0.072-0.229-0.072-0.355c0-0.626,0.508-1.133,1.134-1.133c0.626,0,1.134,0.507,1.134,1.133   c0,0.01-0.005,0.019-0.006,0.028l2.001,1.051c0.187-0.134,0.402-0.229,0.648-0.229c0.126,0,0.242,0.034,0.355,0.071l1.6-1.6   c-0.038-0.113-0.072-0.229-0.072-0.355c0-0.626,0.509-1.134,1.134-1.134c0.627,0,1.133,0.508,1.133,1.134   c0,0.627-0.506,1.134-1.133,1.134c-0.126,0-0.242-0.034-0.355-0.071l-1.601,1.6c0.038,0.113,0.072,0.229,0.072,0.355   c0,0.626-0.507,1.133-1.134,1.133c-0.625,0-1.134-0.507-1.134-1.133c0-0.01,0.005-0.019,0.006-0.028l-2.002-1.052   c-0.186,0.134-0.401,0.229-0.647,0.229c-0.125,0-0.241-0.034-0.354-0.071l-1.601,1.601c0.038,0.113,0.072,0.229,0.072,0.354   c0,0.627-0.508,1.135-1.135,1.135c-0.626,0-1.133-0.508-1.133-1.135C30.807,42.326,31.313,41.819,31.939,41.819z"></path><path fill="#000000" d="M70.121,2.747h-41.43c-3.724,0-6.74,3.018-6.74,6.74v81.52c0,3.724,3.017,6.738,6.74,6.738h41.43   c3.723,0,6.74-3.017,6.74-6.738V9.487C76.861,5.766,73.844,2.747,70.121,2.747z M45.939,6.268h6.934   c0.578,0,1.047,0.471,1.047,1.048c0,0.578-0.469,1.049-1.047,1.049h-6.934c-0.578,0-1.048-0.471-1.048-1.049   C44.892,6.738,45.361,6.268,45.939,6.268z M49.405,94.676c-1.655,0-2.999-1.345-2.999-3c0-1.654,1.344-2.996,2.999-2.996   s3.001,1.342,3.001,2.996C52.406,93.331,51.061,94.676,49.405,94.676z M71.242,85.607H27.567V11.886h43.675V85.607z"></path><path d="M36.847,28.113c3.131,0,5.67-2.539,5.67-5.671c0-3.131-2.539-5.67-5.67-5.67c-3.131,0-5.67,2.539-5.67,5.67   C31.177,25.574,33.716,28.113,36.847,28.113z M36.847,17.227v5.216h-5.216C31.631,19.563,33.967,17.227,36.847,17.227z"></path><path fill="#000000" d="M47.668,18.467h19.363c0.539,0,0.975-0.437,0.975-0.975c0-0.539-0.436-0.975-0.975-0.975H47.668   c-0.538,0-0.975,0.436-0.975,0.975C46.694,18.03,47.13,18.467,47.668,18.467z"></path><path fill="#000000" d="M47.668,23.416h19.363c0.539,0,0.975-0.436,0.975-0.975c0-0.538-0.436-0.975-0.975-0.975H47.668   c-0.538,0-0.975,0.437-0.975,0.975C46.694,22.98,47.13,23.416,47.668,23.416z"></path><path fill="#000000" d="M47.668,28.366h19.363c0.539,0,0.975-0.437,0.975-0.976c0-0.537-0.436-0.975-0.975-0.975H47.668   c-0.538,0-0.975,0.438-0.975,0.975C46.694,27.93,47.13,28.366,47.668,28.366z"></path><path d="M31.939,44.087c0.627,0,1.135-0.508,1.135-1.135c0-0.126-0.034-0.241-0.072-0.354l1.601-1.601   c0.113,0.037,0.229,0.071,0.354,0.071c0.246,0,0.462-0.095,0.647-0.229l2.002,1.052c0,0.01-0.006,0.019-0.006,0.028   c0,0.626,0.509,1.133,1.134,1.133c0.626,0,1.134-0.507,1.134-1.133c0-0.126-0.034-0.242-0.072-0.355l1.601-1.6   c0.113,0.037,0.229,0.071,0.355,0.071c0.627,0,1.133-0.507,1.133-1.134c0-0.626-0.506-1.134-1.133-1.134   c-0.625,0-1.134,0.508-1.134,1.134c0,0.126,0.034,0.242,0.072,0.355l-1.6,1.6c-0.113-0.037-0.229-0.071-0.355-0.071   c-0.246,0-0.462,0.095-0.648,0.229l-2.001-1.051c0-0.01,0.006-0.019,0.006-0.028c0-0.626-0.507-1.133-1.134-1.133   c-0.626,0-1.134,0.507-1.134,1.133c0,0.126,0.034,0.242,0.072,0.355l-1.601,1.6c-0.113-0.037-0.229-0.071-0.355-0.071   c-0.626,0-1.133,0.507-1.133,1.133C30.807,43.579,31.313,44.087,31.939,44.087z"></path><path fill="#000000" d="M47.668,36.061h19.363c0.539,0,0.975-0.436,0.975-0.975c0-0.538-0.436-0.975-0.975-0.975H47.668   c-0.538,0-0.975,0.437-0.975,0.975C46.694,35.625,47.13,36.061,47.668,36.061z"></path><path fill="#000000" d="M47.668,41.011h19.363c0.539,0,0.975-0.437,0.975-0.976c0-0.537-0.436-0.975-0.975-0.975H47.668   c-0.538,0-0.975,0.438-0.975,0.975C46.694,40.574,47.13,41.011,47.668,41.011z"></path><path fill="#000000" d="M47.668,45.961h19.363c0.539,0,0.975-0.438,0.975-0.976s-0.436-0.975-0.975-0.975H47.668   c-0.538,0-0.975,0.437-0.975,0.975S47.13,45.961,47.668,45.961z"></path><path fill="#000000" d="M33.861,62.76v-4.912c0-0.241-0.195-0.438-0.436-0.438h-1.75c-0.241,0-0.437,0.196-0.437,0.438v4.912   c0,0.241,0.196,0.438,0.437,0.438h1.75C33.666,63.197,33.861,63.001,33.861,62.76z"></path><path fill="#000000" d="M37.898,63.197c0.241,0,0.437-0.196,0.437-0.438v-7.688c0-0.242-0.196-0.438-0.437-0.438H36.15   c-0.242,0-0.438,0.195-0.438,0.438v7.688c0,0.241,0.196,0.438,0.438,0.438H37.898z"></path><path fill="#000000" d="M42.374,51.857h-1.75c-0.242,0-0.438,0.196-0.438,0.438V62.76c0,0.241,0.196,0.438,0.438,0.438h1.75   c0.24,0,0.437-0.196,0.437-0.438V52.295C42.81,52.054,42.614,51.857,42.374,51.857z"></path><path fill="#000000" d="M47.668,53.379h19.363c0.539,0,0.975-0.437,0.975-0.975c0-0.539-0.436-0.975-0.975-0.975H47.668   c-0.538,0-0.975,0.436-0.975,0.975C46.694,52.942,47.13,53.379,47.668,53.379z"></path><path fill="#000000" d="M47.668,58.328h19.363c0.539,0,0.975-0.436,0.975-0.975c0-0.538-0.436-0.975-0.975-0.975H47.668   c-0.538,0-0.975,0.437-0.975,0.975C46.694,57.893,47.13,58.328,47.668,58.328z"></path><path fill="#000000" d="M47.668,63.278h19.363c0.539,0,0.975-0.437,0.975-0.976c0-0.537-0.436-0.975-0.975-0.975H47.668   c-0.538,0-0.975,0.438-0.975,0.975C46.694,62.842,47.13,63.278,47.668,63.278z"></path><path fill="#000000" d="M47.668,71.181h19.363c0.539,0,0.975-0.437,0.975-0.976c0-0.537-0.436-0.975-0.975-0.975H47.668   c-0.538,0-0.975,0.438-0.975,0.975C46.694,70.744,47.13,71.181,47.668,71.181z"></path><path fill="#000000" d="M47.668,76.131h19.363c0.539,0,0.975-0.438,0.975-0.976s-0.436-0.975-0.975-0.975H47.668   c-0.538,0-0.975,0.437-0.975,0.975S47.13,76.131,47.668,76.131z"></path><path fill="#000000" d="M47.668,81.08h19.363c0.539,0,0.975-0.437,0.975-0.975c0-0.539-0.436-0.975-0.975-0.975H47.668   c-0.538,0-0.975,0.436-0.975,0.975C46.694,80.644,47.13,81.08,47.668,81.08z"></path><path d="M37.384,73.756c-1.196-0.43-1.683-0.736-1.683-1.18c0-0.391,0.292-0.793,1.195-0.793c1.001,0,1.654,0.32,2.002,0.486   l0.416-1.569c-0.485-0.223-1.112-0.433-2.028-0.459v-1.223h-1.362v1.32c-1.486,0.276-2.349,1.237-2.349,2.473   c0,1.348,1.014,2.044,2.502,2.544c1.042,0.346,1.486,0.68,1.486,1.209c0,0.541-0.542,0.861-1.35,0.861   c-0.902,0-1.722-0.293-2.305-0.611l-0.417,1.625c0.529,0.291,1.431,0.557,2.362,0.598v1.32h1.375v-1.432   c1.599-0.265,2.46-1.32,2.46-2.558C39.69,75.105,39.036,74.341,37.384,73.756z"></path></g></svg>