<svg height='100px' width='100px'  fill="#0080FF" xmlns="http://www.w3.org/2000/svg" viewBox="0 0 64 64" x="0px" y="0px"><title>Search icon</title><desc>Search icon for website, application, printing, document, poster design, etc.</desc><metadata><?xpacket begin="&#65279;" id="W5M0MpCehiHzreSzNTczkc9d"?><x:xmpmeta xmlns:x="adobe:ns:meta/" x:xmptk="Adobe XMP Core 6.0-c002 79.164352, 2020/01/30-15:50:38        "></x:xmpmeta><?xpacket end="w"?></metadata><g><g><path d="M45.33,30a1,1,0,0,0,0,2H61a1,1,0,0,0,1-1V15a1,1,0,0,0-1-1H41.957a20.9,20.9,0,0,0-2.7-4.288,1,1,0,1,0-1.547,1.267,19.018,19.018,0,1,1-2.689-2.688,1,1,0,1,0,1.266-1.548A20.986,20.986,0,1,0,10,39.461V53H7.816a3,3,0,1,0,0,2H11a1,1,0,0,0,1-1V40.854a20.842,20.842,0,0,0,5,2.262V56.184a3,3,0,1,0,2,0V43.607a20.864,20.864,0,0,0,3,.342V48a1,1,0,0,0,1,1h8v2.184a3,3,0,1,0,2,0V48a1,1,0,0,0-1-1H24V43.949A20.876,20.876,0,0,0,34.744,40.4l3.172,3.171a2.962,2.962,0,0,0,.578,3.407l9.35,9.349a1,1,0,0,0,1.414-1.414L46.98,52.636l5.656-5.657,7.071,7.072a1,1,0,0,1,0,1.413l-4.242,4.243a1,1,0,0,1-1.415,0l-1.964-1.964a1,1,0,0,0-1.414,1.414l1.964,1.964a3,3,0,0,0,4.243,0l4.242-4.242a3,3,0,0,0,0-4.243L46.979,38.494a3,3,0,0,0-3.405-.577L40.4,34.744A20.9,20.9,0,0,0,43.373,28H57a1,1,0,0,0,1-1V19a1,1,0,0,0-1-1H43.381c-.167-.676-.357-1.345-.589-2H60V30ZM5,55a1,1,0,1,1,1-1A1,1,0,0,1,5,55Zm13,5a1,1,0,1,1,1-1A1,1,0,0,1,18,60Zm14-5a1,1,0,1,1,1-1A1,1,0,0,1,32,55Zm13.566-3.778-1.415-1.415,5.656-5.656,1.415,1.414Zm0-11.314,2.828,2.828-5.656,5.657-2.829-2.829a1,1,0,0,1,0-1.413l4.242-4.243A1,1,0,0,1,45.565,39.908ZM42.029,39.2,39.2,42.029l-2.84-2.84a21.168,21.168,0,0,0,2.828-2.828ZM56,20v6H43.76q.142-.987.189-2H49a1,1,0,0,0,0-2H43.957c-.033-.671-.095-1.338-.191-2Z"></path><circle cx="53" cy="23" r="1"></circle><path d="M23,40A17,17,0,1,0,6,23,16.828,16.828,0,0,0,9.581,33.414a1,1,0,0,0,1.58-1.227A14.846,14.846,0,0,1,8,23,15,15,0,1,1,23,38a14.848,14.848,0,0,1-9.187-3.161,1,1,0,1,0-1.226,1.579A16.826,16.826,0,0,0,23,40Z"></path><path d="M33,18a1,1,0,0,0,0-2h-.343a12.573,12.573,0,0,1-8.95-3.707,1,1,0,0,0-1.414,0A12.573,12.573,0,0,1,13.343,16H13a1,1,0,0,0-1,1v3.271a14.929,14.929,0,0,0,5.629,11.713l4.746,3.8a1,1,0,0,0,1.25,0l4.746-3.8a15.006,15.006,0,0,0,5.587-10.932,1,1,0,1,0-2-.1,13,13,0,0,1-4.839,9.475L23,33.719l-4.121-3.3A12.939,12.939,0,0,1,14,20.271V17.986a14.539,14.539,0,0,0,9-3.616A14.55,14.55,0,0,0,32.657,18Z"></path><path d="M27.293,20.293,23,24.586l-2.293-2.293a1,1,0,0,0-1.414,1.414l3,3a1,1,0,0,0,1.414,0l5-5a1,1,0,0,0-1.414-1.414Z"></path></g></g></svg>