<svg height='100px' width='100px'  fill="#0080FF" xmlns="http://www.w3.org/2000/svg" data-name="Layer 1" viewBox="0 0 100 100" x="0px" y="0px"><title>07</title><g data-name="Group"><path data-name="Compound Path" d="M50,22.61A27.39,27.39,0,1,0,77.39,50,27.42,27.42,0,0,0,50,22.61ZM35.2,68.1C35.65,60.71,40.62,57,50,57S64.35,60.71,64.8,68.1a23.34,23.34,0,0,1-29.6,0ZM50,51.82a7.5,7.5,0,1,1,7.5-7.5A7.5,7.5,0,0,1,50,51.82ZM68.31,64.53C67,58.84,63,55.13,56.66,53.67a11.5,11.5,0,1,0-13.33,0C37,55.13,33,58.84,31.69,64.53a23.39,23.39,0,1,1,36.62,0Z"></path><path data-name="Compound Path" d="M89.89,37.39l-6.7-1.14L87,30.83a6.77,6.77,0,0,0-.55-8.94l-8.38-8.38a6.69,6.69,0,0,0-8.79-.66l-5.57,4-1.12-6.55a6.77,6.77,0,0,0-6.71-5.93H44.08a6.69,6.69,0,0,0-6.68,5.75l-1.15,6.74L30.82,13a6.77,6.77,0,0,0-8.94.55l-8.38,8.38a6.69,6.69,0,0,0-.66,8.79l4,5.57-6.56,1.12a6.77,6.77,0,0,0-5.93,6.71V55.92a6.69,6.69,0,0,0,5.75,6.68l6.74,1.14L13,69.18a6.76,6.76,0,0,0,.55,8.94l8.38,8.38a6.75,6.75,0,0,0,4.8,2,6.54,6.54,0,0,0,4-1.33l5.57-4,1.12,6.55a6.77,6.77,0,0,0,6.71,5.93H55.92a6.69,6.69,0,0,0,6.68-5.75l1.15-6.74L69.18,87a6.79,6.79,0,0,0,4.16,1.43,6.71,6.71,0,0,0,4.78-2l8.38-8.37a6.69,6.69,0,0,0,.66-8.79l-4-5.57,6.55-1.12a6.77,6.77,0,0,0,5.93-6.71V44.08A6.71,6.71,0,0,0,89.89,37.39Zm1.79,18.54a2.79,2.79,0,0,1-2.51,2.75l-9.78,1.66a2,2,0,0,0-1.3,3.13l5.85,8.24a2.74,2.74,0,0,1-.28,3.57l-8.38,8.38a2.76,2.76,0,0,1-3.72.17l-8.09-5.74a2,2,0,0,0-3.13,1.3l-1.69,10a2.74,2.74,0,0,1-2.73,2.33H44.08a2.79,2.79,0,0,1-2.75-2.51l-1.66-9.78a2,2,0,0,0-3.13-1.29l-8.24,5.85a2.8,2.8,0,0,1-3.57-.28l-8.38-8.38a2.79,2.79,0,0,1-.17-3.72l5.74-8.09a2,2,0,0,0-1.3-3.13l-10-1.69a2.74,2.74,0,0,1-2.33-2.73V44.08a2.79,2.79,0,0,1,2.51-2.75l9.78-1.66a2,2,0,0,0,1.3-3.13l-5.85-8.24a2.74,2.74,0,0,1,.28-3.57l8.38-8.38a2.79,2.79,0,0,1,3.72-.17l8.09,5.74a2,2,0,0,0,3.13-1.3l1.69-10a2.74,2.74,0,0,1,2.73-2.33H55.92a2.79,2.79,0,0,1,2.75,2.51l1.66,9.78a2,2,0,0,0,3.13,1.29l8.24-5.85a2.74,2.74,0,0,1,3.57.28l8.38,8.38a2.79,2.79,0,0,1,.17,3.72l-5.74,8.09a2,2,0,0,0,1.3,3.13l9.87,1.68h.09a2.74,2.74,0,0,1,2.33,2.73Z"></path></g></svg>