<svg height='100px' width='100px'  fill="#0080FF" xmlns="http://www.w3.org/2000/svg" xmlns:xlink="http://www.w3.org/1999/xlink" version="1.1" x="0px" y="0px" viewBox="0 0 100 100" enable-background="new 0 0 100 100" xml:space="preserve"><path d="M80.613,33.988c-1.454,4.706-5.839,8.125-11.023,8.125c-6.371,0-11.536-5.165-11.536-11.536s5.165-11.536,11.536-11.536  v11.536L80.613,33.988z M82.381,32.731c0.333-1.078,0.513-2.223,0.513-3.411c0-6.371-5.165-11.536-11.536-11.536v11.536  L82.381,32.731z M94.561,61.902v10.686h-0.008c-0.118,3.049-2.625,5.485-5.703,5.485H59.936c0.051,1.282,0.765,7.097,9.452,8.189  h-0.416c1.372,0,2.484,1.112,2.484,2.484s-1.112,2.484-2.484,2.484H30.888c-1.372,0-2.484-1.112-2.484-2.484  s1.112-2.484,2.484-2.484h-0.279c8.687-1.092,9.401-6.908,9.452-8.189H11.148c-3.078,0-5.585-2.436-5.703-5.485H5.441v-0.122  c-0.001-0.034-0.003-0.068-0.003-0.102v-0.476c0-0.034,0.002-0.068,0.003-0.102v-8.668c0-0.027-0.002-0.053-0.002-0.08V15.25  c0-3.573,2.907-6.48,6.48-6.48h76.158c3.573,0,6.48,2.907,6.48,6.48v46.654L94.561,61.902z M53.169,71.682  c0-1.75-1.419-3.169-3.169-3.169s-3.169,1.419-3.169,3.169c0,1.75,1.419,3.169,3.169,3.169S53.169,73.433,53.169,71.682z   M89.214,15.25c0-0.626-0.51-1.136-1.136-1.136H11.92c-0.626,0-1.136,0.509-1.136,1.136v47.789c0,0.626,0.51,1.136,1.136,1.136  h76.158c0.626,0,1.136-0.509,1.136-1.136V15.25z M21.211,45.522c0-0.479-0.388-0.867-0.867-0.867h-4.738  c-0.479,0-0.867,0.388-0.867,0.867v13.669c0,0.479,0.388,0.867,0.867,0.867h4.738c0.479,0,0.867-0.388,0.867-0.867V45.522z   M31.277,35.55c0-0.479-0.388-0.867-0.867-0.867h-4.738c-0.479,0-0.867,0.388-0.867,0.867v23.64c0,0.479,0.388,0.867,0.867,0.867  h4.738c0.479,0,0.867-0.388,0.867-0.867V35.55z M41.343,25.036c0-0.479-0.388-0.867-0.867-0.867h-4.738  c-0.479,0-0.867,0.388-0.867,0.867v34.154c0,0.479,0.388,0.867,0.867,0.867h4.738c0.479,0,0.867-0.388,0.867-0.867V25.036z   M51.409,34.141c0-0.479-0.388-0.867-0.867-0.867h-4.738c-0.479,0-0.867,0.388-0.867,0.867v25.05c0,0.479,0.388,0.867,0.867,0.867  h4.738c0.479,0,0.867-0.388,0.867-0.867V34.141z M83.127,46.009H57.005v2.65h26.122V46.009z M83.127,51.352H57.005v2.65h26.122  V51.352z M75.594,56.75H57.005v2.65h18.589V56.75z M90.896,41.824"></path></svg>